<svg width="40" height="50" viewBox="0 0 40 50" fill="none" xmlns="http://www.w3.org/2000/svg">
<mask id="path-1-outside-1_394_304" maskUnits="userSpaceOnUse" x="0" y="0" width="40" height="50" fill="black">
<rect fill="white" width="40" height="50"/>
<path fill-rule="evenodd" clip-rule="evenodd" d="M20 2C10.0589 2 2 10.0589 2 20C2 28.2282 7.52095 35.1669 15.0605 37.3138L19.5 47L23.8102 37.596C31.9213 35.8479 38 28.6338 38 20C38 10.0589 29.9411 2 20 2Z"/>
</mask>
<path fill-rule="evenodd" clip-rule="evenodd" d="M20 2C10.0589 2 2 10.0589 2 20C2 28.2282 7.52095 35.1669 15.0605 37.3138L19.5 47L23.8102 37.596C31.9213 35.8479 38 28.6338 38 20C38 10.0589 29.9411 2 20 2Z" fill="#B620F0"/>
<path d="M15.0605 37.3138L16.1514 36.8138L15.921 36.3111L15.3891 36.1597L15.0605 37.3138ZM19.5 47L18.4091 47.5L19.5 49.8801L20.5909 47.5L19.5 47ZM23.8102 37.596L23.5574 36.4229L22.9698 36.5495L22.7193 37.096L23.8102 37.596ZM3.2 20C3.2 10.7216 10.7216 3.2 20 3.2V0.8C9.39613 0.8 0.8 9.39613 0.8 20H3.2ZM15.3891 36.1597C8.35156 34.1557 3.2 27.6779 3.2 20H0.8C0.8 28.7785 6.69034 36.1781 14.7319 38.4679L15.3891 36.1597ZM20.5909 46.5L16.1514 36.8138L13.9696 37.8138L18.4091 47.5L20.5909 46.5ZM22.7193 37.096L18.4091 46.5L20.5909 47.5L24.9011 38.0959L22.7193 37.096ZM36.8 20C36.8 28.0568 31.1274 34.7914 23.5574 36.4229L24.063 38.769C32.7152 36.9044 39.2 29.2109 39.2 20H36.8ZM20 3.2C29.2784 3.2 36.8 10.7216 36.8 20H39.2C39.2 9.39613 30.6039 0.8 20 0.8V3.2Z" fill="white" mask="url(#path-1-outside-1_394_304)"/>
<path d="M17.5003 28.3337H22.5003C26.667 28.3337 28.3337 26.667 28.3337 22.5003V17.5003C28.3337 13.3337 26.667 11.667 22.5003 11.667H17.5003C13.3337 11.667 11.667 13.3337 11.667 17.5003V22.5003C11.667 26.667 13.3337 28.3337 17.5003 28.3337Z" stroke="white" stroke-width="1.5" stroke-linecap="round" stroke-linejoin="round"/>
<path d="M17.5 11.667L21.625 28.3337" stroke="white" stroke-width="1.5" stroke-linecap="round" stroke-linejoin="round"/>
<path d="M19.6087 20.1836L11.667 22.5003" stroke="white" stroke-width="1.5" stroke-linecap="round" stroke-linejoin="round"/>
</svg>
