<svg width="40" height="50" viewBox="0 0 40 50" fill="none" xmlns="http://www.w3.org/2000/svg">
<mask id="path-1-outside-1_394_347" maskUnits="userSpaceOnUse" x="0" y="0" width="40" height="50" fill="black">
<rect fill="white" width="40" height="50"/>
<path fill-rule="evenodd" clip-rule="evenodd" d="M20 2C10.0589 2 2 10.0589 2 20C2 28.2282 7.52095 35.1669 15.0605 37.3138L19.5 47L23.8102 37.596C31.9213 35.8479 38 28.6338 38 20C38 10.0589 29.9411 2 20 2Z"/>
</mask>
<path fill-rule="evenodd" clip-rule="evenodd" d="M20 2C10.0589 2 2 10.0589 2 20C2 28.2282 7.52095 35.1669 15.0605 37.3138L19.5 47L23.8102 37.596C31.9213 35.8479 38 28.6338 38 20C38 10.0589 29.9411 2 20 2Z" fill="#B620F0"/>
<path d="M15.0605 37.3138L16.1514 36.8138L15.921 36.3111L15.3891 36.1597L15.0605 37.3138ZM19.5 47L18.4091 47.5L19.5 49.8801L20.5909 47.5L19.5 47ZM23.8102 37.596L23.5574 36.4229L22.9698 36.5495L22.7193 37.096L23.8102 37.596ZM3.2 20C3.2 10.7216 10.7216 3.2 20 3.2V0.8C9.39613 0.8 0.8 9.39613 0.8 20H3.2ZM15.3891 36.1597C8.35156 34.1557 3.2 27.6779 3.2 20H0.8C0.8 28.7785 6.69034 36.1781 14.7319 38.4679L15.3891 36.1597ZM20.5909 46.5L16.1514 36.8138L13.9696 37.8138L18.4091 47.5L20.5909 46.5ZM22.7193 37.096L18.4091 46.5L20.5909 47.5L24.9011 38.0959L22.7193 37.096ZM36.8 20C36.8 28.0568 31.1274 34.7914 23.5574 36.4229L24.063 38.769C32.7152 36.9044 39.2 29.2109 39.2 20H36.8ZM20 3.2C29.2784 3.2 36.8 10.7216 36.8 20H39.2C39.2 9.39613 30.6039 0.8 20 0.8V3.2Z" fill="white" mask="url(#path-1-outside-1_394_347)"/>
<path d="M20.0042 28.3161L10.0083 28.3328L10 15.888C10 15.3299 10.2832 14.8134 10.7414 14.5052L14.0733 12.2811C14.6314 11.9063 15.3644 11.9063 15.9225 12.2811L19.2545 14.5052C19.7209 14.8134 19.9958 15.3299 19.9958 15.888L20.0042 28.3161Z" stroke="white" stroke-width="1.5" stroke-miterlimit="10" stroke-linecap="round" stroke-linejoin="round"/>
<path d="M30.0003 28.3161L20.0044 28.3328L19.9961 15.888C19.9961 15.3299 20.2793 14.8134 20.7375 14.5052L24.0694 12.2811C24.6275 11.9063 25.3605 11.9063 25.9186 12.2811L29.2506 14.5052C29.717 14.8134 29.9919 15.3299 29.9919 15.888L30.0003 28.3161Z" stroke="white" stroke-width="1.5" stroke-miterlimit="10" stroke-linecap="round" stroke-linejoin="round"/>
<path d="M14.998 28.3249V25.2012" stroke="white" stroke-width="1.5" stroke-miterlimit="10" stroke-linecap="round" stroke-linejoin="round"/>
<path d="M24.9941 28.3249V25.2012" stroke="white" stroke-width="1.5" stroke-miterlimit="10" stroke-linecap="round" stroke-linejoin="round"/>
<path d="M14.9975 19.4951C16.1018 19.4951 16.997 18.5999 16.997 17.4956C16.997 16.3913 16.1018 15.4961 14.9975 15.4961C13.8932 15.4961 12.998 16.3913 12.998 17.4956C12.998 18.5999 13.8932 19.4951 14.9975 19.4951Z" stroke="white" stroke-width="1.5" stroke-miterlimit="10" stroke-linecap="round" stroke-linejoin="round"/>
<path d="M24.9936 19.4951C26.0979 19.4951 26.9931 18.5999 26.9931 17.4956C26.9931 16.3913 26.0979 15.4961 24.9936 15.4961C23.8893 15.4961 22.9941 16.3913 22.9941 17.4956C22.9941 18.5999 23.8893 19.4951 24.9936 19.4951Z" stroke="white" stroke-width="1.5" stroke-miterlimit="10" stroke-linecap="round" stroke-linejoin="round"/>
</svg>
