<svg width="40" height="50" viewBox="0 0 40 50" fill="none" xmlns="http://www.w3.org/2000/svg">
<mask id="path-1-outside-1_394_378" maskUnits="userSpaceOnUse" x="0" y="0" width="40" height="50" fill="black">
<rect fill="white" width="40" height="50"/>
<path fill-rule="evenodd" clip-rule="evenodd" d="M20 2C10.0589 2 2 10.0589 2 20C2 28.2282 7.52095 35.1669 15.0605 37.3138L19.5 47L23.8102 37.596C31.9213 35.8479 38 28.6338 38 20C38 10.0589 29.9411 2 20 2Z"/>
</mask>
<path fill-rule="evenodd" clip-rule="evenodd" d="M20 2C10.0589 2 2 10.0589 2 20C2 28.2282 7.52095 35.1669 15.0605 37.3138L19.5 47L23.8102 37.596C31.9213 35.8479 38 28.6338 38 20C38 10.0589 29.9411 2 20 2Z" fill="#F54C1E"/>
<path d="M15.0605 37.3138L16.1514 36.8138L15.921 36.3111L15.3891 36.1597L15.0605 37.3138ZM19.5 47L18.4091 47.5L19.5 49.8801L20.5909 47.5L19.5 47ZM23.8102 37.596L23.5574 36.4229L22.9698 36.5495L22.7193 37.096L23.8102 37.596ZM3.2 20C3.2 10.7216 10.7216 3.2 20 3.2V0.8C9.39613 0.8 0.8 9.39613 0.8 20H3.2ZM15.3891 36.1597C8.35156 34.1557 3.2 27.6779 3.2 20H0.8C0.8 28.7785 6.69034 36.1781 14.7319 38.4679L15.3891 36.1597ZM20.5909 46.5L16.1514 36.8138L13.9696 37.8138L18.4091 47.5L20.5909 46.5ZM22.7193 37.096L18.4091 46.5L20.5909 47.5L24.9011 38.0959L22.7193 37.096ZM36.8 20C36.8 28.0568 31.1274 34.7914 23.5574 36.4229L24.063 38.769C32.7152 36.9044 39.2 29.2109 39.2 20H36.8ZM20 3.2C29.2784 3.2 36.8 10.7216 36.8 20H39.2C39.2 9.39613 30.6039 0.8 20 0.8V3.2Z" fill="white" mask="url(#path-1-outside-1_394_378)"/>
<path d="M11.666 27.334H28.3327" stroke="white" stroke-width="1.6" stroke-miterlimit="10" stroke-linecap="round" stroke-linejoin="round"/>
<path d="M12.459 27.3334L12.5007 17.3084C12.5007 16.8 12.7423 16.3167 13.1423 16.0001L18.9757 11.4584C19.5757 10.9917 20.4173 10.9917 21.0257 11.4584L26.859 15.9917C27.2673 16.3084 27.5007 16.7917 27.5007 17.3084V27.3334" stroke="white" stroke-width="1.5" stroke-miterlimit="10" stroke-linejoin="round"/>
<path d="M22.9173 18.166H17.084C16.3923 18.166 15.834 18.7243 15.834 19.416V27.3327H24.1673V19.416C24.1673 18.7243 23.609 18.166 22.9173 18.166Z" stroke="white" stroke-width="1.6" stroke-miterlimit="10" stroke-linecap="round" stroke-linejoin="round"/>
</svg>
